<svg width="24" height="24" viewBox="0 0 24 24" fill="none" xmlns="http://www.w3.org/2000/svg">
<path d="M20.6761 12.7617C20.6598 12.764 20.6435 12.765 20.6276 12.765C20.4436 12.765 20.2838 12.6216 20.2593 12.4247C19.6361 7.40008 15.861 3.43282 11.0793 2.7783C10.8756 2.75037 10.732 2.5543 10.7586 2.34022C10.7851 2.12616 10.9716 1.97529 11.1753 2.00336C16.2916 2.70416 20.3301 6.94798 20.9968 12.3238C21.0234 12.5378 20.8798 12.7338 20.6761 12.7617L20.6761 12.7617ZM15.6233 7.64975C14.408 6.3727 12.8762 5.52825 11.1937 5.20792C10.9918 5.16948 10.7982 5.31027 10.7616 5.52261C10.725 5.73495 10.859 5.93821 11.0611 5.97664C14.1775 6.57017 16.6508 9.16907 17.2155 12.444C17.2481 12.6329 17.4047 12.7652 17.581 12.7652C17.6031 12.7652 17.6254 12.7632 17.6477 12.7589C17.8498 12.7204 17.9839 12.517 17.9472 12.3048C17.6423 10.5366 16.8388 8.92716 15.6233 7.64989L15.6233 7.64975ZM14.1326 12.4864C14.1809 12.6558 14.3286 12.7649 14.4886 12.7649C14.524 12.7649 14.5599 12.7596 14.5955 12.7484C14.7922 12.6865 14.9039 12.4687 14.845 12.262C14.5908 11.3701 14.1235 10.549 13.4939 9.8872C12.8643 9.22557 12.0828 8.73454 11.2341 8.4675C11.0375 8.4056 10.8301 8.52307 10.7712 8.72965C10.7123 8.93637 10.824 9.1542 11.0206 9.21608C12.5202 9.68824 13.6835 10.9106 14.1326 12.4864L14.1326 12.4864ZM16.6028 17.5622C17.3014 18.2962 17.3014 19.4907 16.6028 20.2247C16.4995 20.3333 16.4082 20.4317 16.3242 20.5221C15.8739 21.007 15.6022 21.2995 14.8661 21.6935C14.4837 21.8982 14.0449 22 13.5584 22C12.7634 22 11.8405 21.7282 10.8253 21.1891C9.43463 20.4504 7.87379 19.2082 6.4301 17.6916C4.93078 16.1161 3.67215 14.3756 2.88609 12.7905C1.98162 10.966 1.76449 9.46347 2.25809 8.4451C2.63304 7.67177 2.91158 7.38616 3.37285 6.91311C3.45902 6.82472 3.55259 6.72884 3.65589 6.6203C4.35445 5.88625 5.49113 5.88625 6.18969 6.6203L7.7782 8.2895C8.47676 9.02354 8.47676 10.218 7.7782 10.952L7.39858 11.3509C7.19925 11.5604 7.19925 11.9013 7.39858 12.1109L11.3778 16.2922C11.4739 16.3932 11.6024 16.4489 11.7394 16.4489C11.8765 16.4489 12.0048 16.3932 12.1009 16.2922L12.4806 15.8933C12.8177 15.5391 13.2677 15.3437 13.7475 15.3437C14.2272 15.3437 14.6771 15.5389 15.0145 15.8933L16.6028 17.5622ZM16.0772 18.1147L14.4887 16.4455C14.2919 16.2388 14.0288 16.1248 13.7476 16.1248C13.4666 16.1248 13.2033 16.2386 13.0065 16.4455L12.6268 16.8444C12.3904 17.093 12.0752 17.2299 11.7395 17.2299C11.4038 17.2299 11.0886 17.0932 10.8521 16.8444L6.87289 12.663C6.38367 12.149 6.38367 11.3123 6.87289 10.7982L7.25251 10.3993C7.66116 9.96985 7.66116 9.27122 7.25251 8.84177L5.664 7.17257C5.45973 6.95793 5.19123 6.85039 4.92297 6.85039C4.65445 6.85039 4.38619 6.95764 4.18179 7.17257C4.07617 7.28356 3.98027 7.38189 3.89231 7.47229C3.45802 7.9177 3.24019 8.14111 2.92072 8.79986C2.54615 9.5722 2.76837 10.8612 3.54584 12.4295C4.29771 13.9458 5.50863 15.6183 6.95601 17.139C8.34517 18.5987 9.8385 19.7895 11.1608 20.4916C11.8533 20.8594 12.742 21.2218 13.5539 21.2218C13.8998 21.2218 14.2315 21.1561 14.5285 20.997C15.1554 20.6615 15.3681 20.4325 15.7919 19.9761C15.8779 19.8837 15.9712 19.7829 16.0768 19.6719C16.4858 19.2425 16.4858 18.5439 16.0771 18.1144L16.0772 18.1147Z" fill="#303030"/>
</svg>
